<svg width="64" height="90" viewBox="0 0 64 90" fill="none" xmlns="http://www.w3.org/2000/svg">
<path d="M46.791 30.209C50.632 29.732 57.166 26.592 57.166 18.575C57.166 8.976 48.282 7.431 45.799 7.188C44.892 5.417 41.662 0.220001 34.99 0.220001C30.219 0.220001 27.515 1.941 26.373 2.908C25.071 2.155 22.065 0.774002 17.543 0.774002C10.383 0.774002 3.157 5.393 3.157 15.713C3.157 21.57 8.369 29.629 16.912 30.225V40.527C16.912 40.704 16.97 40.861 17.05 41.005C16.968 41.636 16.914 42.271 16.914 42.906C16.914 51.142 23.614 57.843 31.851 57.843C40.089 57.843 46.792 51.143 46.792 42.906C46.792 42.267 46.737 41.631 46.655 41.002C46.734 40.859 46.791 40.703 46.791 40.527V30.209ZM18.912 39.527V30.283H44.791V39.527H18.912ZM5.157 15.713C5.157 6.775 11.378 2.774 17.543 2.774C22.906 2.774 25.864 4.95 25.891 4.968C26.314 5.294 26.925 5.22 27.269 4.812C27.358 4.706 29.515 2.22 34.991 2.22C41.506 2.22 44.115 8.271 44.222 8.526C44.374 8.894 44.731 9.137 45.129 9.144C45.539 9.151 55.166 9.417 55.166 18.576C55.166 26.556 47.651 28.284 45.791 28.284H45.504C47.581 26.493 49.284 23.927 49.284 22.084C49.284 21.531 48.837 21.084 48.284 21.084C47.731 21.084 47.284 21.531 47.284 22.084C47.284 23.854 44.199 27.545 41.712 28.284H40.6C42.386 26.527 43.192 24.097 43.192 22.638C43.192 22.085 42.745 21.638 42.192 21.638C41.639 21.638 41.192 22.085 41.192 22.638C41.192 23.846 40.063 27.556 36.622 28.284H22.045C15.977 27.345 13.357 22.49 12.819 20.046C12.7 19.506 12.16 19.168 11.628 19.284C11.089 19.402 10.747 19.935 10.866 20.475C11.46 23.178 13.364 26.189 16.398 28.188C9.396 27.328 5.157 20.618 5.157 15.713ZM31.851 55.843C24.718 55.843 18.914 50.039 18.914 42.906C18.914 42.446 18.948 41.985 18.997 41.527H44.708C44.757 41.984 44.791 42.443 44.791 42.906C44.792 50.039 38.986 55.843 31.851 55.843ZM20.188 26.363C20.341 26.447 20.506 26.487 20.669 26.487C21.022 26.487 21.363 26.3 21.546 25.969C21.813 25.486 21.636 24.877 21.152 24.611C19.813 23.874 18.927 22.029 18.912 21.31C18.899 20.765 18.454 20.332 17.912 20.332C17.905 20.332 17.897 20.332 17.89 20.332C17.337 20.345 16.9 20.803 16.912 21.354C16.942 22.682 18.126 25.227 20.188 26.363ZM62.167 89.719H1.543C0.989999 89.719 0.542999 89.272 0.542999 88.719C0.542999 74.782 9.446 62.745 22.697 58.702C22.935 58.629 23.191 58.648 23.416 58.754C26.059 60.001 28.896 60.634 31.85 60.634C34.804 60.634 37.641 60.001 40.284 58.754C40.509 58.649 40.763 58.63 41.003 58.702C54.261 62.747 63.168 74.784 63.168 88.654C63.167 89.207 62.72 89.719 62.167 89.719ZM2.558 87.719H61.153C60.767 75.256 52.694 64.526 40.78 60.728C37.97 61.994 34.968 62.634 31.85 62.634C28.732 62.634 25.73 61.993 22.92 60.728C11.013 64.524 2.943 75.255 2.558 87.719ZM31.855 68.19C32.931 68.19 33.803 69.062 33.803 70.138C33.803 71.214 32.931 72.086 31.855 72.086C30.779 72.086 29.907 71.214 29.907 70.138C29.907 69.062 30.779 68.19 31.855 68.19ZM31.855 77.19C32.931 77.19 33.803 78.062 33.803 79.138C33.803 80.214 32.931 81.086 31.855 81.086C30.779 81.086 29.907 80.214 29.907 79.138C29.907 78.062 30.779 77.19 31.855 77.19Z" fill="#FF69B4"/>
</svg>
